# xmcd CD database file
#
# Track frame offsets:
#	150
#	39607
#	69592
#	98517
#	130117
#	184912
#	231937
#	260925
#
# Disc length: 3772 seconds
#
# Revision: 0
# Processed by: cddbd v1.5.1PL0 Copyright (c) Steve Scherf et al.
# Submitted via: CDex 1.51
#
DISCID=700eba08
DTITLE=Doreen Ketchens - Doreen's Jazz - Volume XIV
DYEAR=2002
DGENRE=Jazz
TTITLE0=Sweet Georgia Brown
TTITLE1=Pennies From Heaven
TTITLE2=St. James Infirmary
TTITLE3=Oh Lady Be Good
TTITLE4=Bill Bailey
TTITLE5=Tin Roof Blues
TTITLE6=China Boy
TTITLE7=Didn't He Ramble
EXTD=YEAR: 2002
EXTT0=
EXTT1=
EXTT2=
EXTT3=
EXTT4=
EXTT5=
EXTT6=
EXTT7=
PLAYORDER=
